<svg xmlns="http://www.w3.org/2000/svg" viewBox="0 0 100 100">
  <defs>
    <style>
      .cls-1 {
        fill: #0793f5;
      }
    </style>
  </defs>
  <title>atom-loader</title>
  <path class="cls-1" d="M58.0507,48.3961a8.2279,8.2279,0,1,0-6.4479,9.652,8.2,8.2,0,0,0,6.4479-9.652Z"/>
  <path class="cls-1" d="M85.2127,50.4423l.2882.005A8.863,8.863,0,0,0,91.612,35.1645c2.0137-4.5453,2.26-8.5615.378-11.6071-1.3761-2.2271-4.52-4.88-11.6957-4.88A51.2623,51.2623,0,0,0,65.855,21.1731C62.4625,8.1985,56.7407,0,49.9933,0,44.1941,0,39.1522,6.05,35.6949,15.9852,30.38,13.38,25.5263,11.94,21.5625,11.94a10.16,10.16,0,0,0-7.4836,2.7037C11.64,17.0832,10.8661,20.9,11.742,25.76a8.88,8.88,0,0,0,4.59,16.4756,8.9614,8.9614,0,0,0,1.7767-.1784c.1547-.0312.3057-.0774.4591-.1161.9458,1.5609,1.9851,3.1417,3.0855,4.7287a79.85,79.85,0,0,0-9.0194,9.425C6.0576,64.3289,4.0289,71.4382,6.9172,76.1132c1.3762,2.2271,4.5216,4.881,11.6932,4.881a52.5839,52.5839,0,0,0,15.37-2.7849c.252.9919.51,1.9651.7885,2.9009a8.881,8.881,0,0,0,6.6975,16.095,9.0944,9.0944,0,0,0,1.4873-.4454A10.1223,10.1223,0,0,0,49.9908,100c5.7118,0,10.6826-5.8716,14.1349-15.5323,4.9408,2.3132,9.4549,3.59,13.1779,3.59a10.1467,10.1467,0,0,0,7.48-2.7037c3.8877-3.884,3.5471-11.27-.96-20.7975a80.4929,80.4929,0,0,0-6.7162-11.3726c1.44-1.2851,2.8085-2.5714,4.0774-3.8465A8.9223,8.9223,0,0,0,85.2127,50.4423ZM49.992,4.0025c4.3519,0,8.9957,6.9471,11.9877,18.4482a106.3253,106.3253,0,0,0-9.95,4.161,98.5562,98.5562,0,0,0-12.6864-8.6863C42.2814,9.1542,46.2477,4.0025,49.992,4.0025ZM65.165,49.9994q0,3.99-.2233,7.7268c-2.3594,1.6919-4.8523,3.3713-7.5148,5.0169C54.012,64.8517,50.56,66.7644,47.1523,68.46c-2.8372-2.3743-5.6744-4.9595-8.4493-7.7331-1.2738-1.2739-2.4953-2.564-3.6918-3.86-.1173-2.23-.1922-4.5079-.1922-6.8685,0-3.0755.1086-6.0387.302-8.8884q3.0673-2.1466,6.3569-4.186c3.325-2.0536,6.6825-3.9189,10.0051-5.5808,2.9121,2.4267,5.8279,5.073,8.6788,7.9227,1.7056,1.7056,3.3213,3.4411,4.8872,5.1841Q65.1612,47.1634,65.165,49.9994Zm3.9976-.7536q1.3194,1.6338,2.54,3.2639-1.2671,1.0573-2.6139,2.1186c.0487-1.5222.0774-3.0643.0774-4.63C69.1675,49.7461,69.1626,49.4991,69.1626,49.2458ZM64.5287,62.9016a95.8481,95.8481,0,0,1-2.856,15.7956A93.0438,93.0438,0,0,1,50.5784,71.22c2.9695-1.5359,5.9627-3.2265,8.9521-5.0706C61.2548,65.0838,62.91,63.9971,64.5287,62.9016ZM43.1859,70.339c-2.1148.957-4.2,1.82-6.2346,2.5827-.6064-3.0206-1.1017-6.2846-1.461-9.7606.1285.13.2532.2645.383.3943C38.2851,65.9684,40.7317,68.2242,43.1859,70.339ZM30.8489,52.13c-1.3437-1.6107-2.6239-3.224-3.8241-4.8335,1.2551-1.053,2.564-2.0948,3.9139-3.1267q-.1179,2.8616-.1222,5.8279C30.8165,50.7193,30.8389,51.418,30.8489,52.13Zm4.7262-16.1749a95.8918,95.8918,0,0,1,2.5814-14.1012,94.455,94.455,0,0,1,9.8879,6.7337c-2.8772,1.4985-5.7793,3.1442-8.6714,4.9308Q37.4416,34.7128,35.5751,35.9555Zm27.4152.4829c-2.4879-2.4891-5.0157-4.8136-7.546-6.9883,2.5378-1.1541,5.0332-2.1784,7.4549-3.0568a104.6542,104.6542,0,0,1,1.733,11.7432C64.0845,37.57,63.553,36.9986,62.99,36.4384ZM17.3141,38.1327a4.7356,4.7356,0,0,1-.8621.0811,4.924,4.924,0,0,1-4.89-3.89,4.8846,4.8846,0,0,1,3.79-5.7506,5.0562,5.0562,0,0,1,.9856-.1c.0761,0,.1485.0162.2221.02a4.8683,4.8683,0,0,1,3.8429,7.5559,4.7785,4.7785,0,0,1-.3469.4255A4.8088,4.8088,0,0,1,17.3141,38.1327ZM22.1189,40.09A8.9286,8.9286,0,0,0,23.74,38.26a8.883,8.883,0,0,0-7.4024-13.7868c-.2471,0-.4978.0174-.7449.0374-.4928-3.1953-.0674-5.6532,1.3163-7.0381a6.3569,6.3569,0,0,1,4.6526-1.5309c3.5147,0,7.9776,1.4,12.9259,3.8989a101.2407,101.2407,0,0,0-3.2339,19.107q-3.4512,2.4929-6.56,5.088C23.7858,42.7117,22.9137,41.3917,22.1189,40.09Zm-3.51,36.8988c-2.9408,0-6.7661-.5165-8.2883-2.9819-1.8778-3.0381.1559-8.8036,5.4374-15.4188a75.61,75.61,0,0,1,8.2409-8.6539c2.1447,2.8609,4.5153,5.7306,7.073,8.5628a113.8626,113.8626,0,0,0,2.0063,15.7769A49.1766,49.1766,0,0,1,18.6092,76.9891ZM40.6719,93.2813a5.0452,5.0452,0,0,1-.5228.0511,4.9125,4.9125,0,0,1-5.229-3.859,4.8363,4.8363,0,0,1,.7112-3.667,4.69,4.69,0,0,1,.4953-.61,4.7772,4.7772,0,0,1,2.5839-1.4722,4.9507,4.9507,0,0,1,.9857-.0986c.0674,0,.13.0137.1984.0187a4.8874,4.8874,0,0,1,4.58,3.889,4.8384,4.8384,0,0,1-.7137,3.6657c-.0312.0462-.0723.0823-.1035.13A4.8336,4.8336,0,0,1,40.6719,93.2813Zm9.32,2.7137a5.79,5.79,0,0,1-3.6756-1.5871,9.0119,9.0119,0,0,0,.781-.9994A8.8822,8.8822,0,0,0,39.6949,79.623a9.0227,9.0227,0,0,0-1.0992.0761c-.2632-.9034-.5165-1.8454-.7586-2.8111,2.846-1.0493,5.7793-2.2894,8.7625-3.7006a96.7306,96.7306,0,0,0,13.8641,9.4137C57.5429,91.0492,53.66,95.995,49.992,95.995Zm30.215-29.73c3.6207,7.6533,4.2758,13.7307,1.748,16.256a6.3517,6.3517,0,0,1-4.6514,1.5309c-3.28,0-7.3887-1.224-11.9452-3.4186a101.9831,101.9831,0,0,0,3.4623-20.75q2.7549-2.0269,5.244-4.0849A75.7745,75.7745,0,0,1,80.207,66.2653ZM74.7184,49.8784c-1.7692-2.3469-3.6818-4.6975-5.733-7.0295a113.9829,113.9829,0,0,0-2.21-17.7531A47.6581,47.6581,0,0,1,80.2931,22.68c2.9407,0,6.7686.5177,8.2908,2.9807,1.0655,1.728.8783,4.3069-.4579,7.44a8.8148,8.8148,0,0,0-2.3681-.4093l-.29-.005a8.9237,8.9237,0,0,0-8.851,8.604,8.76,8.76,0,0,0,1.5608,5.3026C77.104,47.6762,75.9362,48.7742,74.7184,49.8784Zm6.3283-6.3357a4.7986,4.7986,0,0,1-.43-2.1286,4.8953,4.8953,0,0,1,4.851-4.7262l.1622.0025a5.1362,5.1362,0,0,1,.5552.0736,4.8648,4.8648,0,0,1-.685,9.6807l-.1609-.0024a4.7714,4.7714,0,0,1-4.292-2.9Z"/>
</svg>
