<svg id="Layer_1" data-name="Layer 1" xmlns="http://www.w3.org/2000/svg" viewBox="0 0 58 58">
  <defs>
    <style>
      .cls-1 {
        fill: #afd69b;
      }
    </style>
  </defs>
  <title>border-dashed-outline</title>
  <path class="cls-1" d="M51.51,58H49.78V57h1.73A5.49,5.49,0,0,0,57,51.51v-.86h1v.86A6.5,6.5,0,0,1,51.51,58Zm-7.73,0h-12V57h12Zm-18,0h-12V57h12Zm-18,0H6.49A6.5,6.5,0,0,1,0,51.51v-1.3H1v1.3A5.49,5.49,0,0,0,6.49,57H7.78ZM58,44.65H57v-12h1ZM1,44.21H0v-12H1ZM58,26.65H57v-12h1ZM1,26.21H0v-12H1ZM58,8.65H57V6.49A5.49,5.49,0,0,0,51.51,1h-.43V0h.43A6.5,6.5,0,0,1,58,6.49ZM1,8.21H0V6.49A6.5,6.5,0,0,1,6.49,0H9.08V1H6.49A5.49,5.49,0,0,0,1,6.49ZM45.08,1h-12V0h12Zm-18,0h-12V0h12Z"/>
</svg>
