<svg xmlns="http://www.w3.org/2000/svg" viewBox="0 0 609 609">
  <defs>
    <filter id="a" width="111" height="109" x="-5" y="-4">
      <feOffset in="SourceAlpha" result="shadowOffsetOuter1"/>
      <feGaussianBlur in="shadowOffsetOuter1" result="shadowBlurOuter1" stdDeviation="10"/>
      <feMerge>
        <feMergeNode in="shadowMatrixOuter1"/>
        <feMergeNode in="SourceGraphic"/>
      </feMerge>
    </filter>
  </defs>
  <path d="M305 20a285 285 0 1 0 1 570 285 285 0 0 0-1-570z" style="fill:#fff;filter:url(#a)"/>
  <path d="M210 422c4 5 10 9 17 9l9-2a21 21 0 0 0 14-21 23 23 0 0 0-7-15l-7-5-9-2c-8 0-16 6-20 14a45 45 0 0 0-5-10 30 30 0 0 0-8-8c28-5 50-30 50-59a60 60 0 0 0-60-60l-10 1c-3 1-7 1-10 3 7-7 12-15 14-25l1-9-1-7c4-4 8-9 9-14a46 46 0 0 0 4-17 43 43 0 0 0-43-44 27 27 0 0 0-9 1 33 33 0 0 0-15 6 41 41 0 0 0-11 11 85 85 0 0 0-6 9l-3 11a19 19 0 0 1 16 18c0 10-8 19-18 19a19 19 0 0 1-17-12c-2 6-4 12-4 19a49 49 0 0 0 7 26c-3 4-8 4-12 1a30 30 0 0 1-8-8 17 17 0 0 0-4-5 87 87 0 0 1-5-9c-3-5-4-12-4-15-7 22-12 46-13 71v20c11-3 23 6 28 21s0 31-12 34h-9l1 4c5 23 15 44 26 64a5 5 0 0 1 2-3c4-3 10-1 14 3s4 12 0 15l7 4a55 55 0 0 0 21 7h10c-5 0-7 4-7 8a13 13 0 1 0 26 0c0-5-4-9-9-11l8-2 8 3a27 27 0 0 0 9 1c23-1 42-18 45-40zm-75-25a12 12 0 1 1 12-12 12 12 0 0 1-12 12zm91-238a7 7 0 0 1-2-5l-2-8a18 18 0 0 1 2-8 19 19 0 0 1 18-11 18 18 0 0 1 8 2 20 20 0 0 1 5 4 42 42 0 0 1 22-14 47 47 0 0 1 11-1l11 4a18 18 0 0 1 7 6 21 21 0 0 1 5 8 31 31 0 0 1 10 23 31 31 0 0 1-7 20c-5 6-11 10-19 11-9 8-20 12-30 10a16 16 0 0 1-10-3c-9-6-15-19-14-31-6 0-11-3-15-7zm162-13c9 0 18 4 25 10 5 7 9 14 9 24a33 33 0 0 1-17 29 41 41 0 0 1-34 34c-1-5-6-9-12-9a11 11 0 0 0-10 8l-2-1c-15-6-26-21-26-38 0-23 18-40 39-42l5-6a34 34 0 0 1 23-9zm72-29c-2 5-8 8-14 9a44 44 0 0 1-22-6l-9-8-6-8c-3-6-3-12 0-17 5-10 21-11 36-2 6 4 12 10 15 16s3 11 0 16zm43 51a37 37 0 0 1 7 21 34 34 0 0 1-10 24c-7 6-15 10-24 10a31 31 0 0 1-14-3c-9-4-14-11-18-18a34 34 0 0 1-3-14 31 31 0 0 1 3-14c4-8 10-14 18-18a34 34 0 0 1 14-3 31 31 0 0 1 13 3c6 3 10 7 14 12zm-50 94a14 14 0 0 1 15 14 15 15 0 0 1-15 15 12 12 0 0 1-5-1c-5-3-9-8-9-14s4-11 9-13a12 12 0 0 1 5-1zM157 129a15 15 0 1 1 15-15 15 15 0 0 1-15 15zm337-5c-4 0-7-1-11-4-1-3-3-7-3-11a14 14 0 0 1 2-6l19 19a14 14 0 0 1-7 2zM173 357a17 17 0 0 1-18-17v-1l1-4c-3 2-5 4-9 5-14 4-27-3-31-14a22 22 0 0 1 2-18h-6c-4-9-12-18-21-24l16-10 11 4a47 47 0 0 0 11 1 57 57 0 0 0 14-2 58 58 0 0 0-14 21l5-3c14-4 27 3 31 14 2 5 1 10-1 15a16 16 0 0 1 9-3 17 17 0 0 1 17 17c-1 11-7 19-17 19zm117 37c14 0 27 7 33 17 4 7 7 15 7 23a32 32 0 0 1-7 20c-7 9-19 13-33 13-22 0-39-12-39-33a40 40 0 0 1 39-40zm-47 101c0 5-3 11-6 16l-3 2-4 1h-4a5 5 0 0 1-4-2c-8-8-20-10-21-17-2-12 10-22 21-22l8 2c8 3 13 11 13 20zm9-264a24 24 0 0 1 13-4c5 0 10 1 13 4s5 5 5 9-2 7-5 10a24 24 0 0 1-13 4c-5 0-10-1-13-4s-4-6-4-10 2-6 4-9zm15 324c2 3 4 5 4 8a9 9 0 0 1 1 4 263 263 0 0 1-40-8l5-6a16 16 0 0 1 7-4 27 27 0 0 1 8-1c6 0 11 3 15 7zm105-68a6 6 0 0 1 0-12 6 6 0 1 1 0 12z" style="fill:#f1f1f1"/>
</svg>
