<svg id="Layer_1" data-name="Layer 1" xmlns="http://www.w3.org/2000/svg" xmlns:xlink="http://www.w3.org/1999/xlink" viewBox="0 0 870 482">
  <defs>
    <style>
      .cls-1, .cls-8, .cls-9 {
        fill: none;
      }

      .cls-1 {
        stroke: #fff;
        stroke-width: 3px;
        stroke-dasharray: 12;
      }

      .cls-1, .cls-8 {
        stroke-linecap: square;
      }

      .cls-2 {
        fill: #0793f5;
      }

      .cls-3 {
        filter: url(#c);
      }

      .cls-4 {
        fill: #f4c82f;
      }

      .cls-5 {
        fill: #dbb32a;
      }

      .cls-6 {
        fill: #f1f1f1;
      }

      .cls-7 {
        fill: #fefefe;
      }

      .cls-8 {
        stroke: #d8d8d8;
        stroke-dasharray: 2 2;
      }

      .cls-9 {
        stroke: #fefefe;
      }
    </style>
    <filter id="c" x="-14.4" y="-6.7" width="128.8" height="113.5" name="c">
      <feOffset result="shadowOffsetOuter1" in="SourceAlpha"/>
      <feGaussianBlur result="shadowBlurOuter1" stdDeviation="6" in="shadowOffsetOuter1"/>
      <feMerge>
        <feMergeNode in="shadowMatrixOuter1"/>
        <feMergeNode in="SourceGraphic"/>
      </feMerge>
    </filter>
  </defs>
  <title>rocket</title>
  <path class="cls-1" d="M599.0488,251.2764c-66.98,39.964-49.26,101.084-185.9451,151.862C276.4188,453.9184,156.18,412.13,157.18,324.21s153.4539-72.934,146.9559,12.988-76.477,199.819-225.933,149.864Q-71.2528,437.1079-47.76,390.15"/>
  <g>
    <circle class="cls-2" cx="774.0108" cy="102.2865" r="22.7865"/>
    <g class="cls-3">
      <path class="cls-4" d="M660.8461,174.4316A34.642,34.642,0,0,0,647.6522,201.88c3.22,6.4074-7.9241,6.8369-7.9241,6.8369s16.84,22.21,48.3652-2.6759c-16.2651-13.5258-27.2472-31.6091-27.2472-31.6091"/>
      <path class="cls-5" d="M660.6251,178.938a23.7984,23.7984,0,0,0-3.4655,3.1605c3.6968,5.3925,11.5241,15.8933,21.7416,24.3825-9.4771,7.4867-17.4459,10.1744-23.8467,10.4716,7.1224,1.3681,17.0549-.1127,29.652-10.0644-14.3864-11.9524-24.0814-27.95-24.0814-27.95"/>
      <path class="cls-6" d="M761.1551,164.3427l-34.6314,21.729c8.2789,17.4851-29.43,42.5021-29.43,42.5021-10.4235,9.0187-2.1636,11.57-2.1636,11.57,27.5518-5.2756,60.38-35.4066,67.4542-50.8068,7.0721-15.4073-1.2293-24.9942-1.2293-24.9942m-72.1538-61.2142c-16.1327,4.8875-50.7324,32.96-60.2748,59.1319,0,0,1.1669,8.3833,11.6162-.6019,0,0,29.134-33.8678,44.8462-23.5126l26.0637-31.631s-6.1123-8.2716-22.2513-3.3864"/>
      <path class="cls-7" d="M843.8334,38.4276S791.0615,17.08,759.86,46.4563L675.3068,149.4285a34.8632,34.8632,0,0,0,.8934,3.6325L662.09,172.05s1.7161,4.9547,12.0412,16.9274c10.3288,11.972,16.3648,16.0035,16.3648,16.0035l20.6879-11.4543c1.1858.59,2.3857,1.18,3.6423,1.727l110.93-72.3309C858.4994,94.7107,843.8334,38.4276,843.8334,38.4276Zm-57.09,78.6282a19.5,19.5,0,1,1,2.0373-27.5017A19.5,19.5,0,0,1,786.7438,117.0558Z"/>
      <path class="cls-8" d="M678.0488,155.2765a44.7742,44.7742,0,0,0,12,22.5006,77.3835,77.3835,0,0,0,18.4993,13.9994"/>
      <path class="cls-9" d="M786.7438,117.0558a19.5,19.5,0,1,1,2.0373-27.5016A19.5,19.5,0,0,1,786.7438,117.0558Z"/>
      <path class="cls-6" d="M726.0217,143.938l-29.8436,26.815C694.6888,176.3231,659.4,203.12,659.4,203.12c-10.3854,8.92-5.3706,7.75-5.3706,7.75,21.2915-12.2865,54.5681-41.4332,64.689-53.1313,10.1245-11.7015,7.3033-13.8,7.3033-13.8"/>
    </g>
  </g>
</svg>
